<svg width="24.000000" height="24.000000" viewBox="0 0 24 24" fill="none" xmlns="http://www.w3.org/2000/svg" xmlns:xlink="http://www.w3.org/1999/xlink">
	<desc>
			Created with Pixso.
	</desc>
	<defs>
		<clipPath id="clip95_446">
			<rect id="user-01" width="24.000000" height="24.000000" fill="white" fill-opacity="0"/>
		</clipPath>
	</defs>
	<rect id="user-01" width="24.000000" height="24.000000" fill="#FFFFFF" fill-opacity="0"/>
	<g clip-path="url(#clip95_446)">
		<path id="Accent" d="M4 21C4 19.6 4 18.9 4.17 18.33C4.55 17.06 5.56 16.06 6.83 15.67C7.4 15.5 8.1 15.5 9.5 15.5L14.5 15.5C15.89 15.5 16.59 15.5 17.16 15.67C18.43 16.06 19.44 17.06 19.82 18.33C20 18.9 20 19.6 20 " stroke="#FAFAFA" stroke-opacity="1.000000" stroke-width="2.000000" stroke-linejoin="round" stroke-linecap="round"/>
		<path id="Icon" d="M12 12C9.51 12 7.5 9.98 7.5 7.5C7.5 5.01 9.51 3 12 3C14.48 3 16.5 5.01 16.5 7.5C16.5 9.98 14.48 12 12 12Z" stroke="#FAFAFA" stroke-opacity="1.000000" stroke-width="2.000000" stroke-linejoin="round"/>
	</g>
</svg>
